<?xml version="1.0" encoding="utf-8"?>
<!-- Generator: Adobe Illustrator 16.0.0, SVG Export Plug-In . SVG Version: 6.00 Build 0)  -->
<!DOCTYPE svg PUBLIC "-//W3C//DTD SVG 1.1//EN" "http://www.w3.org/Graphics/SVG/1.1/DTD/svg11.dtd">
<svg version="1.1" id="Capa_1" xmlns="http://www.w3.org/2000/svg" xmlns:xlink="http://www.w3.org/1999/xlink" x="0px" y="0px"
	 width="113.386px" height="113.386px" viewBox="0 0 113.386 113.386" enable-background="new 0 0 113.386 113.386"
	 xml:space="preserve">
<g id="Capa_x0020_1">
	<path fill="#575756" d="M0.138,8.796c0,9.843-0.46,95.622,0.303,97.641c1.402,3.705,4.409,6.741,8.229,6.754
		c16.915,0,33.83,0,50.744,0c0-15.007,0-30.015,0-45.021c-4.053,0-8.105,0-12.158,0c-0.02-0.637-0.06-15.973,0.055-16.484
		c4.035-0.012,8.068-0.023,12.103-0.036c0-29.696,8.75-35.349,35.345-34.774c0.871,0.008,0.674,0.197,0.674,2.119
		c0,4.86,0,9.719,0,14.579c-12.873,0-19.336-1.409-18.09,18.066c3.162,0.166,16.992-0.257,18.072,0.082
		c0.005,5.456,0.01,10.912,0.016,16.368c-0.521,0.224-16.064,0.067-18.121,0.081c0,15.008,0,30.015,0,45.021
		c6.078,0,25.255,0.707,29.816-0.57c2.986-0.836,6.041-4.805,6.053-8.117c0.034-10.338,0.661-95.226-0.453-97.945
		c-1.456-3.557-4.328-6.438-8.08-6.45C94.474,0.075,10.092-0.208,7.327,0.302C3.541,1,0.617,4.536,0.138,8.796z"/>
</g>
</svg>
