<?xml version="1.0" encoding="utf-8"?>
<!-- Generator: Adobe Illustrator 16.0.0, SVG Export Plug-In . SVG Version: 6.00 Build 0)  -->
<!DOCTYPE svg PUBLIC "-//W3C//DTD SVG 1.1//EN" "http://www.w3.org/Graphics/SVG/1.1/DTD/svg11.dtd">
<svg version="1.1" id="Capa_1" xmlns="http://www.w3.org/2000/svg" xmlns:xlink="http://www.w3.org/1999/xlink" x="0px" y="0px"
	 width="113.386px" height="113.386px" viewBox="0 0 113.386 113.386" enable-background="new 0 0 113.386 113.386"
	 xml:space="preserve">
<g id="Capa_x0020_1">
	<path fill="#575756" d="M0.271,69.568c-0.134-0.635-1.295-40.261,2.489-48.947C8.864,6.612,17.4,2.333,31.248,0.551
		C38.067-0.326,83.47-0.3,89.003,1.699c10.67,3.854,17.111,7.137,21.471,19.048c3.767,10.288,3.818,60.702,0.504,70.434
		c-6.632,19.481-22.223,21.952-41.475,21.952c-8.867,0-39.4,1.558-50.209-3.056C-3.43,100.379,1.826,76.939,0.271,69.568z
		 M85.417,58.822c-0.98,5.748-1.479,9.727-5.252,14.633c-17.544,22.818-47.068,10.223-51.411-9.013
		C20.801,29.214,67.33,13.045,83.082,45.098C85.009,49.02,86.143,54.583,85.417,58.822z M93.383,27.444
		c-1.979,10.529-17.151,4.904-12.369-4.33C84.228,16.911,94.688,20.493,93.383,27.444z M43.607,103.152
		c3.829,0.008,36.521,0.932,43.326-1.309c5.581-1.836,11.117-4.634,13.335-10.531c2.229-5.926,2.692-11.844,2.688-18.193
		c-0.006-12.6,0.833-32.494-0.896-45.293c-1.73-12.814-13.014-17.156-24.42-17.206c-9.676-0.043-31.942-0.993-40.264-0.198
		c-10.021,0.958-15.571,0.63-22.617,8.691c-0.943,1.078-3.727,7.96-3.966,11.513c-0.323,4.814-2.048,49.533,1.285,58.368
		C17.371,103.022,30.65,103.127,43.607,103.152z M38.11,60.72c2.616,13.207,18.956,18.873,28.053,12.344
		c4.117-2.955,7.085-5.524,8.633-10.81c2.727-9.312-0.993-15.775-7.779-21.397c-7.763-6.43-25.628-3.438-28.989,12.146
		C37.503,55.436,37.652,58.418,38.11,60.72z"/>
</g>
</svg>
