<?xml version="1.0" encoding="utf-8"?>
<!-- Generator: Adobe Illustrator 16.0.0, SVG Export Plug-In . SVG Version: 6.00 Build 0)  -->
<!DOCTYPE svg PUBLIC "-//W3C//DTD SVG 1.1//EN" "http://www.w3.org/Graphics/SVG/1.1/DTD/svg11.dtd">
<svg version="1.1" id="Capa_1" xmlns="http://www.w3.org/2000/svg" xmlns:xlink="http://www.w3.org/1999/xlink" x="0px" y="0px"
	 width="120.473px" height="113.386px" viewBox="0 0 120.473 113.386" enable-background="new 0 0 120.473 113.386"
	 xml:space="preserve">
<g id="Capa_x0020_1">
	<path fill="#575756" d="M0.227,113.289c-0.287-0.889-0.121-53.205-0.135-59.108c-0.015-6.439-0.188-13.259,0.02-19.65
		c8.016,0.009,16.032,0.019,24.048,0.028c0.194,3.065,0.033,6.754,0.027,9.892c-0.016,7.94,0.226,67.739-0.117,68.838
		C16.122,113.289,8.174,113.289,0.227,113.289z M62.107,41.827c0.665-0.036,0.591-0.096,1.023-0.719
		c0.024-0.034,0.055-0.083,0.079-0.118c8.377-11.285,23.89-15.79,37.267-11.997c13.824,3.921,18.545,12.574,19.68,27.19
		c0.326,4.184,0.43,55.757,0.122,57.105c-7.964,0-15.929,0-23.893,0c-0.313-1.787-0.079-38.538-0.079-41.426
		c0-6.701,0.264-13.271-2.113-18.745c-2.105-4.847-6.113-7.497-13.587-7.031c-15.431,0.962-15.511,11.731-15.511,25.976
		c0,2.381,0.201,39.957-0.098,41.226c-7.898,0.032-15.798,0.065-23.697,0.099c0-27.541,0-55.082,0-82.624
		c6.923,0.006,13.846,0.014,20.768,0.021C62.081,34.464,62.094,38.146,62.107,41.827z M0.138,0C8.154,0.013,16.17,0.027,24.186,0.04
		c0.027,6.84,0.055,13.679,0.082,20.519c-8.056,0-16.111,0-24.167,0C0.114,13.706,0.126,6.853,0.138,0z"/>
</g>
</svg>
