<?xml version="1.0" encoding="utf-8"?>
<!-- Generator: Adobe Illustrator 16.0.0, SVG Export Plug-In . SVG Version: 6.00 Build 0)  -->
<!DOCTYPE svg PUBLIC "-//W3C//DTD SVG 1.1//EN" "http://www.w3.org/Graphics/SVG/1.1/DTD/svg11.dtd">
<svg version="1.1" id="Capa_1" xmlns="http://www.w3.org/2000/svg" xmlns:xlink="http://www.w3.org/1999/xlink" x="0px" y="0px"
	 width="126.141px" height="113.386px" viewBox="0 0 126.141 113.386" enable-background="new 0 0 126.141 113.386"
	 xml:space="preserve">
<g id="Capa_x0020_1">
	<path fill="#575756" d="M28.231,81.053l6.876-6.823C16.267,55.426,9.135,37.947,10.069,26.089
		c0.361-4.577,1.908-8.372,4.444-11.158c2.563-2.816,6.1-4.566,10.41-5.025c9.525-1.011,23.006,4.435,38.025,18.999
		C77.834,14.481,91.306,9.101,100.848,10.15c4.293,0.472,7.828,2.224,10.4,5.033c2.547,2.782,4.107,6.563,4.479,11.123
		c0.957,11.756-6.082,29.061-24.816,47.803l7,6.944c4.641-4.632,8.64-9.188,12.045-13.63c41.395-54.002-4.801-91.356-46.885-49.354
		c-42.11-42.029-88.338-4.602-46.806,49.456C19.653,71.935,23.625,76.457,28.231,81.053z M37.635,71.722l8.154-8.09
		C8.436,26.351,19.925,4.51,63.071,46.214c43.146-41.704,54.635-19.863,17.282,17.418l8.03,7.969
		c17.918-17.925,24.678-34.161,23.793-45.016c-0.306-3.76-1.541-6.821-3.547-9.011c-1.98-2.163-4.758-3.517-8.172-3.893
		c-8.84-0.972-21.709,4.466-36.248,18.978l-1.261,1.257l-1.26-1.257C47.005,18.003,34.123,12.499,25.299,13.436
		c-3.411,0.362-6.18,1.716-8.154,3.885c-2.001,2.198-3.228,5.273-3.525,9.046c-0.864,10.955,5.985,27.361,24.011,45.351
		L37.635,71.722z M63.275,113.386l15.977-16.083c-0.965-1.849-14.105-14.938-16.085-16.128C61.148,82.388,48.1,95.388,46.972,97.38
		L63.275,113.386z"/>
</g>
</svg>
